<svg xmlns="http://www.w3.org/2000/svg" width="1200" height="820"
     viewBox="0 0 1200 820" role="img"
     aria-labelledby="title description">
  <title id="title">Gibbs regions of the quadratic-map classes over F₉</title>
  <desc id="description">Energy-entropy regions of the four non-degenerate fiber
  signatures. The dotted curve is the smallest dilation of the anisotropic region
  about the origin that contains the split region; its scale factor is the
  reciprocal of the exchange rate.</desc>
  <defs>
    <style>
      .grid { stroke: #e2e8f0; stroke-width: 1; }
      .axis { stroke: #94a3b8; stroke-width: 1.8; }
      .curve { fill: none; stroke-width: 2.6; stroke-linejoin: round; }
      .scaled { stroke-width: 2; stroke-dasharray: 6 5; }
      .fill { fill-opacity: 0.11; }
      .outline { stroke-width: 1.4; opacity: .45; }
      .tick { fill: #64748b; font: 13px Inter, ui-sans-serif, system-ui, sans-serif; }
      .axis-label { fill: #475569; font: 15px Inter, ui-sans-serif, system-ui, sans-serif; }
      .legend { fill: #475569; font: 14px Inter, ui-sans-serif, system-ui, sans-serif; }
      .contact { stroke: #b45309; stroke-width: 3; opacity: .8; }
      .note { fill: #b45309; font: 600 13px Inter, ui-sans-serif, system-ui, sans-serif; }
      .title { fill: #172033; font: 700 30px Inter, ui-sans-serif, system-ui, sans-serif; }
      .subtitle { fill: #475569; font: 16px Inter, ui-sans-serif, system-ui, sans-serif; }
    </style>
  </defs>
  <rect width="1200" height="820" fill="#ffffff"/>
  <text class="title" x="600" y="58" text-anchor="middle">
    An exchange rate as a dilation of energy–entropy regions
  </text>
  <text class="subtitle" x="600" y="90" text-anchor="middle">
    pure square x² (S) against split (X) over F₉ · the rate is the largest factor by which one region fits inside the other
  </text>
  <line class="grid" x1="130" y1="150" x2="130" y2="730"/>
  <text class="tick" x="130" y="756" text-anchor="middle">-4.2</text>
  <line class="grid" x1="278" y1="150" x2="278" y2="730"/>
  <text class="tick" x="278" y="756" text-anchor="middle">-3.3</text>
  <line class="grid" x1="426" y1="150" x2="426" y2="730"/>
  <text class="tick" x="426" y="756" text-anchor="middle">-2.5</text>
  <line class="grid" x1="574" y1="150" x2="574" y2="730"/>
  <text class="tick" x="574" y="756" text-anchor="middle">-1.7</text>
  <line class="grid" x1="722" y1="150" x2="722" y2="730"/>
  <text class="tick" x="722" y="756" text-anchor="middle">-0.8</text>
  <line class="grid" x1="870" y1="150" x2="870" y2="730"/>
  <text class="tick" x="870" y="756" text-anchor="middle">0.0</text>
  <line class="grid" x1="130" y1="730" x2="870" y2="730"/>
  <text class="tick" x="116" y="735" text-anchor="end">0.0</text>
  <line class="grid" x1="130" y1="585" x2="870" y2="585"/>
  <text class="tick" x="116" y="590" text-anchor="end">0.6</text>
  <line class="grid" x1="130" y1="440" x2="870" y2="440"/>
  <text class="tick" x="116" y="445" text-anchor="end">1.2</text>
  <line class="grid" x1="130" y1="295" x2="870" y2="295"/>
  <text class="tick" x="116" y="300" text-anchor="end">1.8</text>
  <line class="grid" x1="130" y1="150" x2="870" y2="150"/>
  <text class="tick" x="116" y="155" text-anchor="end">2.4</text>
  <polygon class="fill" fill="#7c3aed" points="368.754,730 368.754,730 368.754,730 368.754,730 368.754,730 368.754,730 368.754,730 368.754,730 368.754,730 368.754,730 368.754,730 368.754,730 368.754,730 368.754,730 368.754,730 368.754,730 368.754,730 368.754,730 368.754,730 368.754,730 368.754,730 368.754,730 368.754,730 368.754,730 368.754,730 368.754,730 368.754,730 368.754,730 368.754,730 368.754,730 368.754,730 368.754,730 368.754,730 368.754,730 368.754,730 368.754,730 368.754,730 368.754,730 368.754,730 368.754,730 368.754,730 368.754,730 368.754,730 368.754,730 368.754,730 368.754,730 368.754,730 368.754,730 368.754,730 368.754,730 368.754,730 368.754,730 368.754,730 368.754,730 368.754,730 368.754,730 368.754,730 368.754,730 368.754,730 368.754,730 368.754,730 368.754,730 368.754,730 368.754,730 368.754,730 368.754,730 368.754,730 368.754,730 368.754,730 368.754,730 368.754,730 368.754,730 368.754,730 368.754,730 368.754,730 368.754,730 368.754,730 368.754,730 368.754,730 368.754,730 368.754,730 368.754,730 368.754,730 368.754,730 368.754,730 368.754,730 368.754,730 368.754,730 368.754,730 368.754,730 368.754,730 368.754,730 368.754,730 368.754,730 368.754,730 368.754,730 368.754,730 368.754,730 368.754,730 368.754,730 368.754,730 368.754,730 368.754,730 368.754,730 368.754,730 368.754,730 368.754,730 368.754,730 368.754,730 368.754,729.999 368.754,729.999 368.754,729.998 368.754,729.997 368.754,729.995 368.754,729.991 368.754,729.985 368.755,729.977 368.755,729.964 368.756,729.945 368.757,729.916 368.759,729.875 368.761,729.816 368.765,729.734 368.771,729.619 368.779,729.463 368.79,729.253 368.805,728.972 368.826,728.603 368.853,728.124 368.89,727.506 368.939,726.722 369.002,725.735 369.084,724.506 369.188,722.992 369.319,721.144 369.484,718.911 369.688,716.238 369.938,713.066 370.243,709.339 370.611,704.995 371.05,699.979 371.571,694.236 372.183,687.716 372.897,680.377 373.721,672.185 374.665,663.117 375.738,653.164 376.948,642.329 378.299,630.63 379.798,618.103 381.445,604.798 383.242,590.781 385.186,576.131 387.273,560.942 389.495,545.315 391.844,529.361 394.308,513.195 396.873,496.933 399.526,480.69 402.25,464.577 405.03,448.696 407.848,433.143 410.688,418.002 413.534,403.344 416.371,389.23 419.185,375.708 421.963,362.812 424.693,350.568 427.367,338.988 429.975,328.076 432.51,317.83 434.967,308.237 437.341,299.281 439.631,290.94 441.833,283.191 443.947,276.005 445.972,269.353 447.91,263.206 449.762,257.533 451.528,252.304 453.213,247.488 454.817,243.058 456.343,238.986 457.795,235.244 459.175,231.808 460.487,228.655 461.732,225.761 462.915,223.107 464.039,220.672 465.105,218.439 466.118,216.391 467.079,214.513 467.992,212.791 468.859,211.211 469.682,209.761 470.464,208.431 471.207,207.211 471.913,206.09 472.584,205.061 473.222,204.116 473.829,203.249 474.406,202.451 474.956,201.718 475.478,201.044 475.976,200.423 476.45,199.853 476.902,199.328 477.333,198.845 477.743,198.399 478.135,197.989 478.509,197.611 478.865,197.263 479.205,196.942 479.53,196.645 479.841,196.372 480.137,196.119 480.421,195.886 480.692,195.671 480.951,195.472 481.199,195.289 481.436,195.119 481.663,194.962 481.881,194.817 482.089,194.682 482.288,194.558 482.479,194.443 482.663,194.337 482.838,194.238 483.006,194.147 483.168,194.062 483.323,193.984 483.471,193.911 483.614,193.844 483.751,193.781 483.882,193.723 484.008,193.67 484.13,193.62 484.246,193.573 484.358,193.531 484.465,193.491 484.569,193.454 484.668,193.419 484.763,193.387 484.855,193.358 484.943,193.33 485.028,193.305 485.11,193.281 485.189,193.259 485.264,193.238 485.337,193.219 485.407,193.202 485.474,193.185 485.539,193.17 485.602,193.156 485.662,193.142 485.72,193.13 485.776,193.118 485.829,193.108 485.881,193.098 485.931,193.089 485.979,193.08 486.025,193.072 486.07,193.064 486.113,193.058 486.154,193.051 486.194,193.045 486.233,193.039 486.27,193.034 486.306,193.029 486.34,193.025 486.373,193.021 486.405,193.017 486.436,193.013 486.466,193.01 486.495,193.007 486.523,193.004 486.549,193.001 486.575,192.998 486.6,192.996 486.624,192.994 486.647,192.992 486.67,192.99 486.691,192.988 486.712,192.986 486.732,192.985 486.751,192.983 486.77,192.982 486.788,192.98 486.805,192.979 486.822,192.978 486.838,192.977 486.854,192.976 486.869,192.975 486.884,192.974 486.898,192.974 486.911,192.973 486.924,192.972 486.937,192.972 486.949,192.971 486.961,192.971 486.972,192.97 486.983,192.97 486.994,192.969 487.004,192.969 487.014,192.968 487.024,192.968 487.033,192.968 487.042,192.967 487.05,192.967 487.059,192.967 487.067,192.966 487.074,192.966 487.082,192.966 487.089,192.966 487.096,192.966 487.103,192.965 487.109,192.965 487.115,192.965 487.121,192.965 487.127,192.965 487.133,192.965 487.138,192.965 487.144,192.964 487.149,192.964 487.154,192.964 487.158,192.964 487.163,192.964 487.167,192.964 487.172,192.964 487.176,192.964 487.18,192.964 487.184,192.964 487.187,192.964 487.191,192.964 487.194,192.964 487.198,192.964 487.201,192.964 487.204,192.964 487.207,192.963 487.21,192.963 487.213,192.963 487.215,192.963 487.218,192.963 487.221,192.963 487.223,192.963 487.225,192.963 487.228,192.963 487.23,192.963 487.232,192.963 487.234,192.963 487.236,192.963 487.238,192.963 487.24,192.963 487.242,192.963 487.243,192.963 487.245,192.963 487.247,192.963 487.248,192.963 487.25,192.963 487.251,192.963 487.252,192.963 487.254,192.963 487.255,192.963 487.256,192.963 487.258,192.963 487.259,192.963 487.26,192.963 487.261,192.963 487.262,192.963 487.263,192.963 487.264,192.963 487.265,192.963 487.266,192.963 487.267,192.963 487.268,192.963 487.269,192.963 487.269,192.963 487.27,192.963 487.271,192.963 487.272,192.963 487.272,192.963 487.273,192.963 487.274,192.963 487.274,192.963 487.275,192.963 487.275,192.963 487.276,192.963 487.277,192.963 487.277,192.963 487.278,192.963 487.278,192.963 487.279,192.963 487.279,192.963 487.279,192.963 487.28,192.963 487.28,192.963 487.281,192.963 487.281,192.963 487.281,192.963 487.282,192.963 487.282,192.963 487.292,192.963 870,192.963 870,730 368.754,730"/>
  <polygon class="outline" stroke="#7c3aed" fill="none" points="368.754,730 368.754,730 368.754,730 368.754,730 368.754,730 368.754,730 368.754,730 368.754,730 368.754,730 368.754,730 368.754,730 368.754,730 368.754,730 368.754,730 368.754,730 368.754,730 368.754,730 368.754,730 368.754,730 368.754,730 368.754,730 368.754,730 368.754,730 368.754,730 368.754,730 368.754,730 368.754,730 368.754,730 368.754,730 368.754,730 368.754,730 368.754,730 368.754,730 368.754,730 368.754,730 368.754,730 368.754,730 368.754,730 368.754,730 368.754,730 368.754,730 368.754,730 368.754,730 368.754,730 368.754,730 368.754,730 368.754,730 368.754,730 368.754,730 368.754,730 368.754,730 368.754,730 368.754,730 368.754,730 368.754,730 368.754,730 368.754,730 368.754,730 368.754,730 368.754,730 368.754,730 368.754,730 368.754,730 368.754,730 368.754,730 368.754,730 368.754,730 368.754,730 368.754,730 368.754,730 368.754,730 368.754,730 368.754,730 368.754,730 368.754,730 368.754,730 368.754,730 368.754,730 368.754,730 368.754,730 368.754,730 368.754,730 368.754,730 368.754,730 368.754,730 368.754,730 368.754,730 368.754,730 368.754,730 368.754,730 368.754,730 368.754,730 368.754,730 368.754,730 368.754,730 368.754,730 368.754,730 368.754,730 368.754,730 368.754,730 368.754,730 368.754,730 368.754,730 368.754,730 368.754,730 368.754,730 368.754,730 368.754,730 368.754,730 368.754,729.999 368.754,729.999 368.754,729.998 368.754,729.997 368.754,729.995 368.754,729.991 368.754,729.985 368.755,729.977 368.755,729.964 368.756,729.945 368.757,729.916 368.759,729.875 368.761,729.816 368.765,729.734 368.771,729.619 368.779,729.463 368.79,729.253 368.805,728.972 368.826,728.603 368.853,728.124 368.89,727.506 368.939,726.722 369.002,725.735 369.084,724.506 369.188,722.992 369.319,721.144 369.484,718.911 369.688,716.238 369.938,713.066 370.243,709.339 370.611,704.995 371.05,699.979 371.571,694.236 372.183,687.716 372.897,680.377 373.721,672.185 374.665,663.117 375.738,653.164 376.948,642.329 378.299,630.63 379.798,618.103 381.445,604.798 383.242,590.781 385.186,576.131 387.273,560.942 389.495,545.315 391.844,529.361 394.308,513.195 396.873,496.933 399.526,480.69 402.25,464.577 405.03,448.696 407.848,433.143 410.688,418.002 413.534,403.344 416.371,389.23 419.185,375.708 421.963,362.812 424.693,350.568 427.367,338.988 429.975,328.076 432.51,317.83 434.967,308.237 437.341,299.281 439.631,290.94 441.833,283.191 443.947,276.005 445.972,269.353 447.91,263.206 449.762,257.533 451.528,252.304 453.213,247.488 454.817,243.058 456.343,238.986 457.795,235.244 459.175,231.808 460.487,228.655 461.732,225.761 462.915,223.107 464.039,220.672 465.105,218.439 466.118,216.391 467.079,214.513 467.992,212.791 468.859,211.211 469.682,209.761 470.464,208.431 471.207,207.211 471.913,206.09 472.584,205.061 473.222,204.116 473.829,203.249 474.406,202.451 474.956,201.718 475.478,201.044 475.976,200.423 476.45,199.853 476.902,199.328 477.333,198.845 477.743,198.399 478.135,197.989 478.509,197.611 478.865,197.263 479.205,196.942 479.53,196.645 479.841,196.372 480.137,196.119 480.421,195.886 480.692,195.671 480.951,195.472 481.199,195.289 481.436,195.119 481.663,194.962 481.881,194.817 482.089,194.682 482.288,194.558 482.479,194.443 482.663,194.337 482.838,194.238 483.006,194.147 483.168,194.062 483.323,193.984 483.471,193.911 483.614,193.844 483.751,193.781 483.882,193.723 484.008,193.67 484.13,193.62 484.246,193.573 484.358,193.531 484.465,193.491 484.569,193.454 484.668,193.419 484.763,193.387 484.855,193.358 484.943,193.33 485.028,193.305 485.11,193.281 485.189,193.259 485.264,193.238 485.337,193.219 485.407,193.202 485.474,193.185 485.539,193.17 485.602,193.156 485.662,193.142 485.72,193.13 485.776,193.118 485.829,193.108 485.881,193.098 485.931,193.089 485.979,193.08 486.025,193.072 486.07,193.064 486.113,193.058 486.154,193.051 486.194,193.045 486.233,193.039 486.27,193.034 486.306,193.029 486.34,193.025 486.373,193.021 486.405,193.017 486.436,193.013 486.466,193.01 486.495,193.007 486.523,193.004 486.549,193.001 486.575,192.998 486.6,192.996 486.624,192.994 486.647,192.992 486.67,192.99 486.691,192.988 486.712,192.986 486.732,192.985 486.751,192.983 486.77,192.982 486.788,192.98 486.805,192.979 486.822,192.978 486.838,192.977 486.854,192.976 486.869,192.975 486.884,192.974 486.898,192.974 486.911,192.973 486.924,192.972 486.937,192.972 486.949,192.971 486.961,192.971 486.972,192.97 486.983,192.97 486.994,192.969 487.004,192.969 487.014,192.968 487.024,192.968 487.033,192.968 487.042,192.967 487.05,192.967 487.059,192.967 487.067,192.966 487.074,192.966 487.082,192.966 487.089,192.966 487.096,192.966 487.103,192.965 487.109,192.965 487.115,192.965 487.121,192.965 487.127,192.965 487.133,192.965 487.138,192.965 487.144,192.964 487.149,192.964 487.154,192.964 487.158,192.964 487.163,192.964 487.167,192.964 487.172,192.964 487.176,192.964 487.18,192.964 487.184,192.964 487.187,192.964 487.191,192.964 487.194,192.964 487.198,192.964 487.201,192.964 487.204,192.964 487.207,192.963 487.21,192.963 487.213,192.963 487.215,192.963 487.218,192.963 487.221,192.963 487.223,192.963 487.225,192.963 487.228,192.963 487.23,192.963 487.232,192.963 487.234,192.963 487.236,192.963 487.238,192.963 487.24,192.963 487.242,192.963 487.243,192.963 487.245,192.963 487.247,192.963 487.248,192.963 487.25,192.963 487.251,192.963 487.252,192.963 487.254,192.963 487.255,192.963 487.256,192.963 487.258,192.963 487.259,192.963 487.26,192.963 487.261,192.963 487.262,192.963 487.263,192.963 487.264,192.963 487.265,192.963 487.266,192.963 487.267,192.963 487.268,192.963 487.269,192.963 487.269,192.963 487.27,192.963 487.271,192.963 487.272,192.963 487.272,192.963 487.273,192.963 487.274,192.963 487.274,192.963 487.275,192.963 487.275,192.963 487.276,192.963 487.277,192.963 487.277,192.963 487.278,192.963 487.278,192.963 487.279,192.963 487.279,192.963 487.279,192.963 487.28,192.963 487.28,192.963 487.281,192.963 487.281,192.963 487.281,192.963 487.282,192.963 487.282,192.963 487.292,192.963 870,192.963 870,730 368.754,730"/>
  <polyline class="curve" stroke="#7c3aed" points="368.754,730 368.754,730 368.754,730 368.754,730 368.754,730 368.754,730 368.754,730 368.754,730 368.754,730 368.754,730 368.754,730 368.754,730 368.754,730 368.754,730 368.754,730 368.754,730 368.754,730 368.754,730 368.754,730 368.754,730 368.754,730 368.754,730 368.754,730 368.754,730 368.754,730 368.754,730 368.754,730 368.754,730 368.754,730 368.754,730 368.754,730 368.754,730 368.754,730 368.754,730 368.754,730 368.754,730 368.754,730 368.754,730 368.754,730 368.754,730 368.754,730 368.754,730 368.754,730 368.754,730 368.754,730 368.754,730 368.754,730 368.754,730 368.754,730 368.754,730 368.754,730 368.754,730 368.754,730 368.754,730 368.754,730 368.754,730 368.754,730 368.754,730 368.754,730 368.754,730 368.754,730 368.754,730 368.754,730 368.754,730 368.754,730 368.754,730 368.754,730 368.754,730 368.754,730 368.754,730 368.754,730 368.754,730 368.754,730 368.754,730 368.754,730 368.754,730 368.754,730 368.754,730 368.754,730 368.754,730 368.754,730 368.754,730 368.754,730 368.754,730 368.754,730 368.754,730 368.754,730 368.754,730 368.754,730 368.754,730 368.754,730 368.754,730 368.754,730 368.754,730 368.754,730 368.754,730 368.754,730 368.754,730 368.754,730 368.754,730 368.754,730 368.754,730 368.754,730 368.754,730 368.754,730 368.754,730 368.754,730 368.754,730 368.754,730 368.754,729.999 368.754,729.999 368.754,729.998 368.754,729.997 368.754,729.995 368.754,729.991 368.754,729.985 368.755,729.977 368.755,729.964 368.756,729.945 368.757,729.916 368.759,729.875 368.761,729.816 368.765,729.734 368.771,729.619 368.779,729.463 368.79,729.253 368.805,728.972 368.826,728.603 368.853,728.124 368.89,727.506 368.939,726.722 369.002,725.735 369.084,724.506 369.188,722.992 369.319,721.144 369.484,718.911 369.688,716.238 369.938,713.066 370.243,709.339 370.611,704.995 371.05,699.979 371.571,694.236 372.183,687.716 372.897,680.377 373.721,672.185 374.665,663.117 375.738,653.164 376.948,642.329 378.299,630.63 379.798,618.103 381.445,604.798 383.242,590.781 385.186,576.131 387.273,560.942 389.495,545.315 391.844,529.361 394.308,513.195 396.873,496.933 399.526,480.69 402.25,464.577 405.03,448.696 407.848,433.143 410.688,418.002 413.534,403.344 416.371,389.23 419.185,375.708 421.963,362.812 424.693,350.568 427.367,338.988 429.975,328.076 432.51,317.83 434.967,308.237 437.341,299.281 439.631,290.94 441.833,283.191 443.947,276.005 445.972,269.353 447.91,263.206 449.762,257.533 451.528,252.304 453.213,247.488 454.817,243.058 456.343,238.986 457.795,235.244 459.175,231.808 460.487,228.655 461.732,225.761 462.915,223.107 464.039,220.672 465.105,218.439 466.118,216.391 467.079,214.513 467.992,212.791 468.859,211.211 469.682,209.761 470.464,208.431 471.207,207.211 471.913,206.09 472.584,205.061 473.222,204.116 473.829,203.249 474.406,202.451 474.956,201.718 475.478,201.044 475.976,200.423 476.45,199.853 476.902,199.328 477.333,198.845 477.743,198.399 478.135,197.989 478.509,197.611 478.865,197.263 479.205,196.942 479.53,196.645 479.841,196.372 480.137,196.119 480.421,195.886 480.692,195.671 480.951,195.472 481.199,195.289 481.436,195.119 481.663,194.962 481.881,194.817 482.089,194.682 482.288,194.558 482.479,194.443 482.663,194.337 482.838,194.238 483.006,194.147 483.168,194.062 483.323,193.984 483.471,193.911 483.614,193.844 483.751,193.781 483.882,193.723 484.008,193.67 484.13,193.62 484.246,193.573 484.358,193.531 484.465,193.491 484.569,193.454 484.668,193.419 484.763,193.387 484.855,193.358 484.943,193.33 485.028,193.305 485.11,193.281 485.189,193.259 485.264,193.238 485.337,193.219 485.407,193.202 485.474,193.185 485.539,193.17 485.602,193.156 485.662,193.142 485.72,193.13 485.776,193.118 485.829,193.108 485.881,193.098 485.931,193.089 485.979,193.08 486.025,193.072 486.07,193.064 486.113,193.058 486.154,193.051 486.194,193.045 486.233,193.039 486.27,193.034 486.306,193.029 486.34,193.025 486.373,193.021 486.405,193.017 486.436,193.013 486.466,193.01 486.495,193.007 486.523,193.004 486.549,193.001 486.575,192.998 486.6,192.996 486.624,192.994 486.647,192.992 486.67,192.99 486.691,192.988 486.712,192.986 486.732,192.985 486.751,192.983 486.77,192.982 486.788,192.98 486.805,192.979 486.822,192.978 486.838,192.977 486.854,192.976 486.869,192.975 486.884,192.974 486.898,192.974 486.911,192.973 486.924,192.972 486.937,192.972 486.949,192.971 486.961,192.971 486.972,192.97 486.983,192.97 486.994,192.969 487.004,192.969 487.014,192.968 487.024,192.968 487.033,192.968 487.042,192.967 487.05,192.967 487.059,192.967 487.067,192.966 487.074,192.966 487.082,192.966 487.089,192.966 487.096,192.966 487.103,192.965 487.109,192.965 487.115,192.965 487.121,192.965 487.127,192.965 487.133,192.965 487.138,192.965 487.144,192.964 487.149,192.964 487.154,192.964 487.158,192.964 487.163,192.964 487.167,192.964 487.172,192.964 487.176,192.964 487.18,192.964 487.184,192.964 487.187,192.964 487.191,192.964 487.194,192.964 487.198,192.964 487.201,192.964 487.204,192.964 487.207,192.963 487.21,192.963 487.213,192.963 487.215,192.963 487.218,192.963 487.221,192.963 487.223,192.963 487.225,192.963 487.228,192.963 487.23,192.963 487.232,192.963 487.234,192.963 487.236,192.963 487.238,192.963 487.24,192.963 487.242,192.963 487.243,192.963 487.245,192.963 487.247,192.963 487.248,192.963 487.25,192.963 487.251,192.963 487.252,192.963 487.254,192.963 487.255,192.963 487.256,192.963 487.258,192.963 487.259,192.963 487.26,192.963 487.261,192.963 487.262,192.963 487.263,192.963 487.264,192.963 487.265,192.963 487.266,192.963 487.267,192.963 487.268,192.963 487.269,192.963 487.269,192.963 487.27,192.963 487.271,192.963 487.272,192.963 487.272,192.963 487.273,192.963 487.274,192.963 487.274,192.963 487.275,192.963 487.275,192.963 487.276,192.963 487.277,192.963 487.277,192.963 487.278,192.963 487.278,192.963 487.279,192.963 487.279,192.963 487.279,192.963 487.28,192.963 487.28,192.963 487.281,192.963 487.281,192.963 487.281,192.963 487.282,192.963 487.282,192.963 487.292,192.963"/>
  <polygon class="fill" fill="#2563eb" points="358.641,391.167 358.641,391.167 358.641,391.167 358.641,391.167 358.641,391.167 358.641,391.167 358.641,391.167 358.641,391.167 358.641,391.167 358.641,391.167 358.641,391.167 358.641,391.167 358.641,391.167 358.641,391.167 358.641,391.167 358.641,391.167 358.641,391.167 358.641,391.167 358.641,391.167 358.641,391.167 358.641,391.167 358.641,391.167 358.641,391.167 358.641,391.167 358.641,391.167 358.641,391.167 358.641,391.167 358.641,391.167 358.641,391.167 358.641,391.167 358.641,391.167 358.641,391.167 358.641,391.167 358.641,391.167 358.641,391.167 358.641,391.167 358.641,391.167 358.641,391.167 358.641,391.167 358.641,391.167 358.641,391.167 358.641,391.167 358.641,391.167 358.641,391.167 358.641,391.167 358.641,391.167 358.641,391.167 358.641,391.167 358.641,391.167 358.641,391.167 358.641,391.167 358.641,391.167 358.641,391.167 358.641,391.167 358.641,391.167 358.641,391.167 358.641,391.167 358.641,391.167 358.641,391.167 358.641,391.167 358.641,391.167 358.641,391.167 358.641,391.167 358.641,391.167 358.641,391.167 358.641,391.167 358.641,391.167 358.641,391.167 358.641,391.167 358.641,391.167 358.641,391.167 358.641,391.167 358.641,391.167 358.641,391.167 358.641,391.167 358.641,391.167 358.641,391.167 358.641,391.167 358.641,391.167 358.641,391.167 358.641,391.167 358.641,391.167 358.641,391.167 358.641,391.167 358.641,391.167 358.641,391.167 358.641,391.167 358.641,391.167 358.641,391.167 358.641,391.167 358.641,391.167 358.641,391.167 358.641,391.167 358.641,391.167 358.641,391.167 358.641,391.167 358.641,391.167 358.641,391.167 358.641,391.167 358.641,391.167 358.641,391.167 358.641,391.167 358.641,391.167 358.641,391.167 358.641,391.167 358.641,391.167 358.641,391.167 358.641,391.167 358.641,391.167 358.641,391.167 358.641,391.167 358.641,391.167 358.641,391.167 358.641,391.167 358.641,391.166 358.641,391.166 358.641,391.165 358.641,391.164 358.641,391.163 358.642,391.161 358.642,391.158 358.642,391.154 358.642,391.148 358.643,391.141 358.643,391.131 358.644,391.118 358.645,391.101 358.646,391.08 358.647,391.053 358.649,391.019 358.652,390.976 358.655,390.925 358.66,390.861 358.665,390.785 358.671,390.694 358.679,390.586 358.689,390.459 358.701,390.311 358.715,390.139 358.731,389.942 358.751,389.716 358.774,389.461 358.801,389.173 358.833,388.851 358.869,388.494 358.91,388.098 358.957,387.664 359.009,387.19 359.069,386.675 359.136,386.118 359.21,385.519 359.292,384.879 359.382,384.197 359.482,383.475 359.59,382.713 359.708,381.913 359.835,381.077 359.973,380.205 360.12,379.301 360.278,378.367 360.446,377.406 360.625,376.42 360.814,375.412 361.014,374.385 361.223,373.342 361.443,372.286 361.673,371.221 361.912,370.15 362.16,369.075 362.417,367.999 362.682,366.926 362.956,365.858 363.237,364.797 363.526,363.747 363.82,362.71 364.121,361.687 364.428,360.681 364.739,359.693 365.055,358.725 365.375,357.778 365.698,356.855 366.024,355.955 366.352,355.079 366.682,354.23 367.013,353.406 367.345,352.608 367.677,351.837 368.009,351.093 368.34,350.376 368.669,349.685 368.998,349.022 369.324,348.384 369.648,347.773 369.969,347.187 370.288,346.627 370.603,346.091 370.914,345.579 371.222,345.09 371.526,344.625 371.826,344.181 372.121,343.759 372.412,343.357 372.698,342.975 372.979,342.613 373.255,342.269 373.526,341.943 373.792,341.634 374.053,341.341 374.309,341.064 374.559,340.802 374.804,340.554 375.044,340.319 375.278,340.098 375.507,339.889 375.731,339.692 375.95,339.506 376.163,339.331 376.371,339.165 376.574,339.01 376.772,338.863 376.965,338.725 377.153,338.595 377.336,338.473 377.514,338.358 377.688,338.25 377.856,338.148 378.021,338.053 378.18,337.963 378.336,337.879 378.487,337.8 378.633,337.725 378.776,337.656 378.914,337.59 379.049,337.529 379.179,337.471 379.306,337.417 379.429,337.367 379.549,337.319 379.664,337.275 379.777,337.233 379.886,337.194 379.992,337.158 380.094,337.123 380.194,337.091 380.29,337.061 380.383,337.033 380.474,337.007 380.562,336.982 380.647,336.959 380.729,336.937 380.809,336.917 380.886,336.898 380.961,336.881 381.033,336.864 381.104,336.849 381.171,336.834 381.237,336.821 381.301,336.808 381.363,336.796 381.422,336.785 381.48,336.775 381.536,336.765 381.59,336.756 381.643,336.747 381.693,336.74 381.742,336.732 381.79,336.725 381.836,336.719 381.88,336.713 381.923,336.707 381.964,336.702 382.005,336.697 382.044,336.692 382.081,336.688 382.117,336.684 382.153,336.68 382.187,336.677 382.22,336.674 382.251,336.671 382.282,336.668 382.312,336.665 382.341,336.663 382.368,336.66 382.395,336.658 382.421,336.656 382.446,336.654 382.471,336.652 382.494,336.651 382.517,336.649 382.539,336.648 382.56,336.646 382.58,336.645 382.6,336.644 382.619,336.643 382.638,336.642 382.656,336.641 382.673,336.64 382.69,336.639 382.706,336.638 382.721,336.638 382.736,336.637 382.751,336.636 382.765,336.636 382.779,336.635 382.792,336.635 382.805,336.634 382.817,336.634 382.829,336.633 382.84,336.633 382.851,336.633 382.862,336.632 382.872,336.632 382.882,336.632 382.892,336.631 382.901,336.631 382.91,336.631 382.919,336.631 382.927,336.63 382.936,336.63 382.943,336.63 382.951,336.63 382.958,336.63 382.965,336.63 382.972,336.629 382.979,336.629 382.985,336.629 382.992,336.629 382.997,336.629 383.003,336.629 383.009,336.629 383.014,336.629 383.019,336.629 383.024,336.629 383.029,336.628 383.034,336.628 383.038,336.628 383.043,336.628 383.047,336.628 383.051,336.628 383.055,336.628 383.059,336.628 383.063,336.628 383.066,336.628 383.07,336.628 383.073,336.628 383.076,336.628 383.079,336.628 383.082,336.628 383.085,336.628 383.088,336.628 383.091,336.628 383.093,336.628 383.096,336.628 383.098,336.628 383.101,336.628 383.103,336.628 383.105,336.628 383.107,336.628 383.109,336.628 383.111,336.628 383.113,336.628 383.115,336.628 383.117,336.628 383.118,336.628 383.12,336.628 383.122,336.628 383.123,336.628 383.125,336.628 383.126,336.628 383.128,336.628 383.129,336.628 383.13,336.628 383.132,336.628 383.133,336.628 383.134,336.628 383.135,336.628 383.136,336.628 383.137,336.628 383.138,336.628 383.139,336.628 383.14,336.628 383.141,336.628 383.142,336.628 383.143,336.628 383.144,336.628 383.145,336.628 383.145,336.628 383.146,336.628 383.147,336.628 383.147,336.628 383.148,336.627 383.149,336.627 383.149,336.627 383.15,336.627 383.151,336.627 383.151,336.627 383.152,336.627 383.152,336.627 383.153,336.627 383.153,336.627 383.154,336.627 383.167,336.627 870,336.627 870,730 358.641,730"/>
  <polygon class="outline" stroke="#2563eb" fill="none" points="358.641,391.167 358.641,391.167 358.641,391.167 358.641,391.167 358.641,391.167 358.641,391.167 358.641,391.167 358.641,391.167 358.641,391.167 358.641,391.167 358.641,391.167 358.641,391.167 358.641,391.167 358.641,391.167 358.641,391.167 358.641,391.167 358.641,391.167 358.641,391.167 358.641,391.167 358.641,391.167 358.641,391.167 358.641,391.167 358.641,391.167 358.641,391.167 358.641,391.167 358.641,391.167 358.641,391.167 358.641,391.167 358.641,391.167 358.641,391.167 358.641,391.167 358.641,391.167 358.641,391.167 358.641,391.167 358.641,391.167 358.641,391.167 358.641,391.167 358.641,391.167 358.641,391.167 358.641,391.167 358.641,391.167 358.641,391.167 358.641,391.167 358.641,391.167 358.641,391.167 358.641,391.167 358.641,391.167 358.641,391.167 358.641,391.167 358.641,391.167 358.641,391.167 358.641,391.167 358.641,391.167 358.641,391.167 358.641,391.167 358.641,391.167 358.641,391.167 358.641,391.167 358.641,391.167 358.641,391.167 358.641,391.167 358.641,391.167 358.641,391.167 358.641,391.167 358.641,391.167 358.641,391.167 358.641,391.167 358.641,391.167 358.641,391.167 358.641,391.167 358.641,391.167 358.641,391.167 358.641,391.167 358.641,391.167 358.641,391.167 358.641,391.167 358.641,391.167 358.641,391.167 358.641,391.167 358.641,391.167 358.641,391.167 358.641,391.167 358.641,391.167 358.641,391.167 358.641,391.167 358.641,391.167 358.641,391.167 358.641,391.167 358.641,391.167 358.641,391.167 358.641,391.167 358.641,391.167 358.641,391.167 358.641,391.167 358.641,391.167 358.641,391.167 358.641,391.167 358.641,391.167 358.641,391.167 358.641,391.167 358.641,391.167 358.641,391.167 358.641,391.167 358.641,391.167 358.641,391.167 358.641,391.167 358.641,391.167 358.641,391.167 358.641,391.167 358.641,391.167 358.641,391.167 358.641,391.167 358.641,391.167 358.641,391.167 358.641,391.166 358.641,391.166 358.641,391.165 358.641,391.164 358.641,391.163 358.642,391.161 358.642,391.158 358.642,391.154 358.642,391.148 358.643,391.141 358.643,391.131 358.644,391.118 358.645,391.101 358.646,391.08 358.647,391.053 358.649,391.019 358.652,390.976 358.655,390.925 358.66,390.861 358.665,390.785 358.671,390.694 358.679,390.586 358.689,390.459 358.701,390.311 358.715,390.139 358.731,389.942 358.751,389.716 358.774,389.461 358.801,389.173 358.833,388.851 358.869,388.494 358.91,388.098 358.957,387.664 359.009,387.19 359.069,386.675 359.136,386.118 359.21,385.519 359.292,384.879 359.382,384.197 359.482,383.475 359.59,382.713 359.708,381.913 359.835,381.077 359.973,380.205 360.12,379.301 360.278,378.367 360.446,377.406 360.625,376.42 360.814,375.412 361.014,374.385 361.223,373.342 361.443,372.286 361.673,371.221 361.912,370.15 362.16,369.075 362.417,367.999 362.682,366.926 362.956,365.858 363.237,364.797 363.526,363.747 363.82,362.71 364.121,361.687 364.428,360.681 364.739,359.693 365.055,358.725 365.375,357.778 365.698,356.855 366.024,355.955 366.352,355.079 366.682,354.23 367.013,353.406 367.345,352.608 367.677,351.837 368.009,351.093 368.34,350.376 368.669,349.685 368.998,349.022 369.324,348.384 369.648,347.773 369.969,347.187 370.288,346.627 370.603,346.091 370.914,345.579 371.222,345.09 371.526,344.625 371.826,344.181 372.121,343.759 372.412,343.357 372.698,342.975 372.979,342.613 373.255,342.269 373.526,341.943 373.792,341.634 374.053,341.341 374.309,341.064 374.559,340.802 374.804,340.554 375.044,340.319 375.278,340.098 375.507,339.889 375.731,339.692 375.95,339.506 376.163,339.331 376.371,339.165 376.574,339.01 376.772,338.863 376.965,338.725 377.153,338.595 377.336,338.473 377.514,338.358 377.688,338.25 377.856,338.148 378.021,338.053 378.18,337.963 378.336,337.879 378.487,337.8 378.633,337.725 378.776,337.656 378.914,337.59 379.049,337.529 379.179,337.471 379.306,337.417 379.429,337.367 379.549,337.319 379.664,337.275 379.777,337.233 379.886,337.194 379.992,337.158 380.094,337.123 380.194,337.091 380.29,337.061 380.383,337.033 380.474,337.007 380.562,336.982 380.647,336.959 380.729,336.937 380.809,336.917 380.886,336.898 380.961,336.881 381.033,336.864 381.104,336.849 381.171,336.834 381.237,336.821 381.301,336.808 381.363,336.796 381.422,336.785 381.48,336.775 381.536,336.765 381.59,336.756 381.643,336.747 381.693,336.74 381.742,336.732 381.79,336.725 381.836,336.719 381.88,336.713 381.923,336.707 381.964,336.702 382.005,336.697 382.044,336.692 382.081,336.688 382.117,336.684 382.153,336.68 382.187,336.677 382.22,336.674 382.251,336.671 382.282,336.668 382.312,336.665 382.341,336.663 382.368,336.66 382.395,336.658 382.421,336.656 382.446,336.654 382.471,336.652 382.494,336.651 382.517,336.649 382.539,336.648 382.56,336.646 382.58,336.645 382.6,336.644 382.619,336.643 382.638,336.642 382.656,336.641 382.673,336.64 382.69,336.639 382.706,336.638 382.721,336.638 382.736,336.637 382.751,336.636 382.765,336.636 382.779,336.635 382.792,336.635 382.805,336.634 382.817,336.634 382.829,336.633 382.84,336.633 382.851,336.633 382.862,336.632 382.872,336.632 382.882,336.632 382.892,336.631 382.901,336.631 382.91,336.631 382.919,336.631 382.927,336.63 382.936,336.63 382.943,336.63 382.951,336.63 382.958,336.63 382.965,336.63 382.972,336.629 382.979,336.629 382.985,336.629 382.992,336.629 382.997,336.629 383.003,336.629 383.009,336.629 383.014,336.629 383.019,336.629 383.024,336.629 383.029,336.628 383.034,336.628 383.038,336.628 383.043,336.628 383.047,336.628 383.051,336.628 383.055,336.628 383.059,336.628 383.063,336.628 383.066,336.628 383.07,336.628 383.073,336.628 383.076,336.628 383.079,336.628 383.082,336.628 383.085,336.628 383.088,336.628 383.091,336.628 383.093,336.628 383.096,336.628 383.098,336.628 383.101,336.628 383.103,336.628 383.105,336.628 383.107,336.628 383.109,336.628 383.111,336.628 383.113,336.628 383.115,336.628 383.117,336.628 383.118,336.628 383.12,336.628 383.122,336.628 383.123,336.628 383.125,336.628 383.126,336.628 383.128,336.628 383.129,336.628 383.13,336.628 383.132,336.628 383.133,336.628 383.134,336.628 383.135,336.628 383.136,336.628 383.137,336.628 383.138,336.628 383.139,336.628 383.14,336.628 383.141,336.628 383.142,336.628 383.143,336.628 383.144,336.628 383.145,336.628 383.145,336.628 383.146,336.628 383.147,336.628 383.147,336.628 383.148,336.627 383.149,336.627 383.149,336.627 383.15,336.627 383.151,336.627 383.151,336.627 383.152,336.627 383.152,336.627 383.153,336.627 383.153,336.627 383.154,336.627 383.167,336.627 870,336.627 870,730 358.641,730"/>
  <polyline class="curve" stroke="#2563eb" points="358.641,391.167 358.641,391.167 358.641,391.167 358.641,391.167 358.641,391.167 358.641,391.167 358.641,391.167 358.641,391.167 358.641,391.167 358.641,391.167 358.641,391.167 358.641,391.167 358.641,391.167 358.641,391.167 358.641,391.167 358.641,391.167 358.641,391.167 358.641,391.167 358.641,391.167 358.641,391.167 358.641,391.167 358.641,391.167 358.641,391.167 358.641,391.167 358.641,391.167 358.641,391.167 358.641,391.167 358.641,391.167 358.641,391.167 358.641,391.167 358.641,391.167 358.641,391.167 358.641,391.167 358.641,391.167 358.641,391.167 358.641,391.167 358.641,391.167 358.641,391.167 358.641,391.167 358.641,391.167 358.641,391.167 358.641,391.167 358.641,391.167 358.641,391.167 358.641,391.167 358.641,391.167 358.641,391.167 358.641,391.167 358.641,391.167 358.641,391.167 358.641,391.167 358.641,391.167 358.641,391.167 358.641,391.167 358.641,391.167 358.641,391.167 358.641,391.167 358.641,391.167 358.641,391.167 358.641,391.167 358.641,391.167 358.641,391.167 358.641,391.167 358.641,391.167 358.641,391.167 358.641,391.167 358.641,391.167 358.641,391.167 358.641,391.167 358.641,391.167 358.641,391.167 358.641,391.167 358.641,391.167 358.641,391.167 358.641,391.167 358.641,391.167 358.641,391.167 358.641,391.167 358.641,391.167 358.641,391.167 358.641,391.167 358.641,391.167 358.641,391.167 358.641,391.167 358.641,391.167 358.641,391.167 358.641,391.167 358.641,391.167 358.641,391.167 358.641,391.167 358.641,391.167 358.641,391.167 358.641,391.167 358.641,391.167 358.641,391.167 358.641,391.167 358.641,391.167 358.641,391.167 358.641,391.167 358.641,391.167 358.641,391.167 358.641,391.167 358.641,391.167 358.641,391.167 358.641,391.167 358.641,391.167 358.641,391.167 358.641,391.167 358.641,391.167 358.641,391.167 358.641,391.167 358.641,391.167 358.641,391.167 358.641,391.167 358.641,391.166 358.641,391.166 358.641,391.165 358.641,391.164 358.641,391.163 358.642,391.161 358.642,391.158 358.642,391.154 358.642,391.148 358.643,391.141 358.643,391.131 358.644,391.118 358.645,391.101 358.646,391.08 358.647,391.053 358.649,391.019 358.652,390.976 358.655,390.925 358.66,390.861 358.665,390.785 358.671,390.694 358.679,390.586 358.689,390.459 358.701,390.311 358.715,390.139 358.731,389.942 358.751,389.716 358.774,389.461 358.801,389.173 358.833,388.851 358.869,388.494 358.91,388.098 358.957,387.664 359.009,387.19 359.069,386.675 359.136,386.118 359.21,385.519 359.292,384.879 359.382,384.197 359.482,383.475 359.59,382.713 359.708,381.913 359.835,381.077 359.973,380.205 360.12,379.301 360.278,378.367 360.446,377.406 360.625,376.42 360.814,375.412 361.014,374.385 361.223,373.342 361.443,372.286 361.673,371.221 361.912,370.15 362.16,369.075 362.417,367.999 362.682,366.926 362.956,365.858 363.237,364.797 363.526,363.747 363.82,362.71 364.121,361.687 364.428,360.681 364.739,359.693 365.055,358.725 365.375,357.778 365.698,356.855 366.024,355.955 366.352,355.079 366.682,354.23 367.013,353.406 367.345,352.608 367.677,351.837 368.009,351.093 368.34,350.376 368.669,349.685 368.998,349.022 369.324,348.384 369.648,347.773 369.969,347.187 370.288,346.627 370.603,346.091 370.914,345.579 371.222,345.09 371.526,344.625 371.826,344.181 372.121,343.759 372.412,343.357 372.698,342.975 372.979,342.613 373.255,342.269 373.526,341.943 373.792,341.634 374.053,341.341 374.309,341.064 374.559,340.802 374.804,340.554 375.044,340.319 375.278,340.098 375.507,339.889 375.731,339.692 375.95,339.506 376.163,339.331 376.371,339.165 376.574,339.01 376.772,338.863 376.965,338.725 377.153,338.595 377.336,338.473 377.514,338.358 377.688,338.25 377.856,338.148 378.021,338.053 378.18,337.963 378.336,337.879 378.487,337.8 378.633,337.725 378.776,337.656 378.914,337.59 379.049,337.529 379.179,337.471 379.306,337.417 379.429,337.367 379.549,337.319 379.664,337.275 379.777,337.233 379.886,337.194 379.992,337.158 380.094,337.123 380.194,337.091 380.29,337.061 380.383,337.033 380.474,337.007 380.562,336.982 380.647,336.959 380.729,336.937 380.809,336.917 380.886,336.898 380.961,336.881 381.033,336.864 381.104,336.849 381.171,336.834 381.237,336.821 381.301,336.808 381.363,336.796 381.422,336.785 381.48,336.775 381.536,336.765 381.59,336.756 381.643,336.747 381.693,336.74 381.742,336.732 381.79,336.725 381.836,336.719 381.88,336.713 381.923,336.707 381.964,336.702 382.005,336.697 382.044,336.692 382.081,336.688 382.117,336.684 382.153,336.68 382.187,336.677 382.22,336.674 382.251,336.671 382.282,336.668 382.312,336.665 382.341,336.663 382.368,336.66 382.395,336.658 382.421,336.656 382.446,336.654 382.471,336.652 382.494,336.651 382.517,336.649 382.539,336.648 382.56,336.646 382.58,336.645 382.6,336.644 382.619,336.643 382.638,336.642 382.656,336.641 382.673,336.64 382.69,336.639 382.706,336.638 382.721,336.638 382.736,336.637 382.751,336.636 382.765,336.636 382.779,336.635 382.792,336.635 382.805,336.634 382.817,336.634 382.829,336.633 382.84,336.633 382.851,336.633 382.862,336.632 382.872,336.632 382.882,336.632 382.892,336.631 382.901,336.631 382.91,336.631 382.919,336.631 382.927,336.63 382.936,336.63 382.943,336.63 382.951,336.63 382.958,336.63 382.965,336.63 382.972,336.629 382.979,336.629 382.985,336.629 382.992,336.629 382.997,336.629 383.003,336.629 383.009,336.629 383.014,336.629 383.019,336.629 383.024,336.629 383.029,336.628 383.034,336.628 383.038,336.628 383.043,336.628 383.047,336.628 383.051,336.628 383.055,336.628 383.059,336.628 383.063,336.628 383.066,336.628 383.07,336.628 383.073,336.628 383.076,336.628 383.079,336.628 383.082,336.628 383.085,336.628 383.088,336.628 383.091,336.628 383.093,336.628 383.096,336.628 383.098,336.628 383.101,336.628 383.103,336.628 383.105,336.628 383.107,336.628 383.109,336.628 383.111,336.628 383.113,336.628 383.115,336.628 383.117,336.628 383.118,336.628 383.12,336.628 383.122,336.628 383.123,336.628 383.125,336.628 383.126,336.628 383.128,336.628 383.129,336.628 383.13,336.628 383.132,336.628 383.133,336.628 383.134,336.628 383.135,336.628 383.136,336.628 383.137,336.628 383.138,336.628 383.139,336.628 383.14,336.628 383.141,336.628 383.142,336.628 383.143,336.628 383.144,336.628 383.145,336.628 383.145,336.628 383.146,336.628 383.147,336.628 383.147,336.628 383.148,336.627 383.149,336.627 383.149,336.627 383.15,336.627 383.151,336.627 383.151,336.627 383.152,336.627 383.152,336.627 383.153,336.627 383.153,336.627 383.154,336.627 383.167,336.627"/>
  <polygon class="curve scaled" fill="none" stroke="#2563eb" points="171.887,267.421 171.887,267.421 171.887,267.421 171.887,267.421 171.887,267.421 171.887,267.421 171.887,267.421 171.887,267.421 171.887,267.421 171.887,267.421 171.887,267.421 171.887,267.421 171.887,267.421 171.887,267.421 171.887,267.421 171.887,267.421 171.887,267.421 171.887,267.421 171.887,267.421 171.887,267.421 171.887,267.421 171.887,267.421 171.887,267.421 171.887,267.421 171.887,267.421 171.887,267.421 171.887,267.421 171.887,267.421 171.887,267.421 171.887,267.421 171.887,267.421 171.887,267.421 171.887,267.421 171.887,267.421 171.887,267.421 171.887,267.421 171.887,267.421 171.887,267.421 171.887,267.421 171.887,267.421 171.887,267.421 171.887,267.421 171.887,267.421 171.887,267.421 171.887,267.421 171.887,267.421 171.887,267.421 171.887,267.421 171.887,267.421 171.887,267.421 171.887,267.421 171.887,267.421 171.887,267.421 171.887,267.421 171.887,267.421 171.887,267.421 171.887,267.421 171.887,267.421 171.887,267.421 171.887,267.421 171.887,267.421 171.887,267.421 171.887,267.421 171.887,267.421 171.887,267.421 171.887,267.421 171.887,267.421 171.887,267.421 171.887,267.421 171.887,267.421 171.887,267.421 171.887,267.421 171.887,267.421 171.887,267.421 171.887,267.421 171.887,267.421 171.887,267.421 171.887,267.421 171.887,267.421 171.887,267.421 171.887,267.421 171.887,267.421 171.887,267.421 171.887,267.421 171.887,267.421 171.887,267.421 171.887,267.421 171.887,267.421 171.887,267.421 171.887,267.421 171.887,267.421 171.887,267.421 171.887,267.421 171.887,267.421 171.887,267.421 171.887,267.421 171.887,267.421 171.887,267.421 171.887,267.421 171.887,267.421 171.887,267.421 171.887,267.421 171.887,267.421 171.887,267.421 171.887,267.421 171.887,267.421 171.887,267.421 171.887,267.421 171.887,267.421 171.887,267.421 171.887,267.421 171.887,267.421 171.887,267.421 171.887,267.421 171.887,267.42 171.887,267.42 171.887,267.419 171.887,267.417 171.887,267.415 171.887,267.412 171.887,267.408 171.888,267.403 171.888,267.395 171.888,267.385 171.889,267.371 171.89,267.354 171.891,267.331 171.893,267.302 171.895,267.265 171.898,267.218 171.901,267.161 171.906,267.09 171.912,267.004 171.919,266.9 171.928,266.775 171.939,266.628 171.952,266.455 171.968,266.252 171.987,266.018 172.01,265.748 172.037,265.44 172.068,265.092 172.105,264.699 172.148,264.26 172.197,263.771 172.253,263.232 172.317,262.639 172.389,261.991 172.471,261.288 172.562,260.528 172.663,259.711 172.775,258.836 172.898,257.906 173.034,256.92 173.182,255.88 173.343,254.788 173.517,253.645 173.704,252.456 173.906,251.222 174.121,249.947 174.351,248.634 174.595,247.288 174.853,245.912 175.126,244.51 175.412,243.086 175.712,241.645 176.025,240.191 176.351,238.728 176.69,237.26 177.041,235.792 177.404,234.327 177.777,232.869 178.161,231.421 178.555,229.987 178.957,228.571 179.368,227.174 179.787,225.801 180.212,224.452 180.643,223.131 181.08,221.839 181.521,220.577 181.966,219.349 182.414,218.154 182.864,216.994 183.316,215.869 183.769,214.78 184.222,213.727 184.675,212.712 185.127,211.732 185.577,210.79 186.025,209.884 186.471,209.014 186.913,208.179 187.352,207.379 187.786,206.614 188.217,205.882 188.642,205.183 189.062,204.517 189.477,203.881 189.886,203.275 190.289,202.698 190.686,202.15 191.077,201.629 191.46,201.134 191.837,200.665 192.208,200.219 192.571,199.797 192.927,199.398 193.276,199.019 193.618,198.661 193.952,198.323 194.279,198.003 194.599,197.701 194.912,197.416 195.218,197.147 195.516,196.893 195.807,196.653 196.092,196.428 196.369,196.215 196.639,196.015 196.902,195.826 197.159,195.649 197.409,195.482 197.652,195.325 197.889,195.178 198.12,195.039 198.344,194.909 198.562,194.786 198.774,194.671 198.98,194.563 199.18,194.462 199.375,194.367 199.564,194.277 199.747,194.194 199.926,194.115 200.099,194.041 200.267,193.972 200.43,193.907 200.588,193.847 200.741,193.79 200.89,193.737 201.034,193.687 201.174,193.64 201.31,193.596 201.442,193.555 201.569,193.517 201.693,193.481 201.813,193.447 201.929,193.416 202.041,193.386 202.15,193.359 202.255,193.333 202.358,193.309 202.457,193.286 202.552,193.265 202.645,193.245 202.735,193.227 202.822,193.209 202.906,193.193 202.988,193.178 203.067,193.164 203.143,193.151 203.217,193.138 203.288,193.127 203.358,193.116 203.424,193.106 203.489,193.096 203.552,193.088 203.612,193.079 203.671,193.072 203.728,193.065 203.783,193.058 203.836,193.052 203.887,193.046 203.937,193.04 203.985,193.035 204.031,193.03 204.076,193.026 204.119,193.022 204.161,193.018 204.202,193.014 204.241,193.011 204.279,193.008 204.316,193.005 204.351,193.002 204.386,192.999 204.419,192.997 204.451,192.995 204.482,192.993 204.512,192.991 204.541,192.989 204.569,192.987 204.596,192.985 204.622,192.984 204.647,192.983 204.671,192.981 204.695,192.98 204.718,192.979 204.74,192.978 204.761,192.977 204.782,192.976 204.802,192.975 204.821,192.974 204.839,192.973 204.857,192.973 204.875,192.972 204.891,192.972 204.908,192.971 204.923,192.97 204.938,192.97 204.953,192.969 204.967,192.969 204.981,192.969 204.994,192.968 205.007,192.968 205.019,192.968 205.031,192.967 205.043,192.967 205.054,192.967 205.064,192.966 205.075,192.966 205.085,192.966 205.094,192.966 205.104,192.966 205.113,192.965 205.122,192.965 205.13,192.965 205.138,192.965 205.146,192.965 205.154,192.965 205.161,192.965 205.168,192.964 205.175,192.964 205.182,192.964 205.188,192.964 205.194,192.964 205.2,192.964 205.206,192.964 205.211,192.964 205.217,192.964 205.222,192.964 205.227,192.964 205.232,192.964 205.237,192.964 205.241,192.964 205.246,192.964 205.25,192.964 205.254,192.963 205.258,192.963 205.262,192.963 205.265,192.963 205.269,192.963 205.272,192.963 205.276,192.963 205.279,192.963 205.282,192.963 205.285,192.963 205.288,192.963 205.291,192.963 205.293,192.963 205.296,192.963 205.298,192.963 205.301,192.963 205.303,192.963 205.306,192.963 205.308,192.963 205.31,192.963 205.312,192.963 205.314,192.963 205.316,192.963 205.318,192.963 205.319,192.963 205.321,192.963 205.323,192.963 205.324,192.963 205.326,192.963 205.327,192.963 205.329,192.963 205.33,192.963 205.332,192.963 205.333,192.963 205.334,192.963 205.335,192.963 205.337,192.963 205.338,192.963 205.339,192.963 205.34,192.963 205.341,192.963 205.342,192.963 205.343,192.963 205.344,192.963 205.345,192.963 205.346,192.963 205.346,192.963 205.347,192.963 205.348,192.963 205.349,192.963 205.349,192.963 205.35,192.963 205.351,192.963 205.351,192.963 205.37,192.963 870,192.963 870,730 171.887,730"/>
  <circle cx="368.754" cy="730" r="4.5" fill="#ffffff" stroke="#7c3aed" stroke-width="2.2"/>
  <circle cx="487.292" cy="192.963" r="4.5" fill="#ffffff" stroke="#7c3aed" stroke-width="2.2"/>
  <circle cx="358.641" cy="391.167" r="4.5" fill="#ffffff" stroke="#2563eb" stroke-width="2.2"/>
  <circle cx="383.167" cy="336.627" r="4.5" fill="#ffffff" stroke="#2563eb" stroke-width="2.2"/>
  <rect x="918" y="156" width="26" height="14" rx="4" fill="#7c3aed" fill-opacity="0.25" stroke="#7c3aed" stroke-width="2"/>
  <text class="legend" x="954" y="168">X · split</text>
  <rect x="918" y="190" width="26" height="14" rx="4" fill="#2563eb" fill-opacity="0.25" stroke="#2563eb" stroke-width="2"/>
  <text class="legend" x="954" y="202">S · pure square x²</text>
  <line class="curve scaled" stroke="#2563eb" x1="918" y1="241" x2="944" y2="241"/>
  <text class="legend" x="954" y="246">S dilated by</text>
  <text class="legend" x="954" y="266">1/C(S→X) = 1.3652,</text>
  <text class="legend" x="954" y="286">the smallest copy</text>
  <text class="legend" x="954" y="306">containing X</text>
  <line class="contact" x1="620" y1="192.963" x2="870" y2="192.963"/>
  <text class="note" x="858" y="178.963" text-anchor="end">contact at T = ∞: equal heights, log 9 = 1.3652 · log 5</text>
  <line class="axis" x1="130" y1="730" x2="870" y2="730"/>
  <line class="axis" x1="130" y1="150" x2="130" y2="730"/>
  <text class="axis-label" x="500" y="788"
        text-anchor="middle">mean energy E</text>
  <text class="axis-label" x="54" y="440"
        text-anchor="middle" transform="rotate(-90 54 440)">
    entropy H</text>
</svg>
